nColumns=19
nRows=26
DataType=double
version=3
OpenSimVersion=4.1
endheader
time	ground_force_calcn_r_vx	ground_force_calcn_r_vy	ground_force_calcn_r_vz	ground_force_calcn_r_px	ground_force_calcn_r_py	ground_force_calcn_r_pz	ground_force_calcn_r_mx	ground_force_calcn_r_my	ground_force_calcn_r_mz	ground_force_calcn_l_vx	ground_force_calcn_l_vy	ground_force_calcn_l_vz	ground_force_calcn_l_px	ground_force_calcn_l_py	ground_force_calcn_l_pz	ground_force_calcn_l_mx	ground_force_calcn_l_my	ground_force_calcn_l_mz
3.22	3.38567	242.042	-18.0384	-0.26685	0	-0.418035	-0.0351212	-2.51082	0.187121	6.29631	242.463	16.346	-0.245551	0	-0.756877	0.0612427	2.35837	0.158994
3.23	4.19182	242.143	-17.4054	-0.268039	0	-0.417976	-0.0447473	-2.58485	0.185801	6.76602	243.557	15.8715	-0.247166	0	-0.756837	0.0706298	2.54247	0.165681
3.24	5.04401	242.188	-16.7309	-0.269272	0	-0.417927	-0.0554479	-2.66233	0.183919	7.16666	244.909	15.389	-0.248808	0	-0.756789	0.0800232	2.73466	0.171834
3.25	5.9218	242.207	-16.0028	-0.270549	0	-0.417898	-0.067074	-2.74339	0.181258	7.5033	246.485	14.896	-0.250495	0	-0.75673	0.0892829	2.93296	0.17725
3.26	6.80904	242.227	-15.2118	-0.27187	0	-0.417895	-0.0794825	-2.82754	0.177568	7.7832	248.25	14.3862	-0.252237	0	-0.756658	0.0982882	3.13496	0.181672
3.27	7.69163	242.269	-14.3562	-0.273227	0	-0.417924	-0.0925089	-2.91382	0.172665	8.0162	250.17	13.849	-0.254039	0	-0.756567	0.106965	3.33816	0.184794
3.28	8.55539	242.34	-13.4424	-0.274614	0	-0.41799	-0.105941	-3.00088	0.166456	8.21345	252.215	13.2707	-0.255898	0	-0.756449	0.11528	3.53996	0.186261
3.29	9.38496	242.448	-12.4826	-0.276012	0	-0.418093	-0.119506	-3.08727	0.15895	8.3853	254.353	12.637	-0.257799	0	-0.756301	0.123219	3.73764	0.185697
3.3	10.163	242.605	-11.4926	-0.277397	0	-0.418232	-0.132867	-3.17174	0.150251	8.54033	256.555	11.9357	-0.259719	0	-0.756119	0.130771	3.92841	0.182762
3.31	10.8693	242.836	-10.4881	-0.278734	0	-0.41841	-0.145625	-3.25348	0.140518	8.6828	258.799	11.1607	-0.261626	0	-0.755903	0.13787	4.10934	0.177216
3.32	11.4809	243.171	-9.47957	-0.279987	0	-0.418623	-0.15732	-3.3321	0.129896	8.81041	261.073	10.3152	-0.26348	0	-0.755655	0.144357	4.27764	0.169013
3.33	11.9747	243.645	-8.47079	-0.281113	0	-0.418875	-0.167475	-3.40754	0.11847	8.91402	263.378	9.41212	-0.265239	0	-0.755384	0.149969	4.43105	0.158349
3.34	12.3318	244.297	-7.46152	-0.282075	0	-0.419168	-0.175663	-3.47994	0.106287	8.98022	265.727	8.47022	-0.266862	0	-0.755097	0.154374	4.56796	0.145606
3.35	12.54	245.162	-6.45383	-0.282844	0	-0.419502	-0.181554	-3.54946	0.0934387	8.9966	268.138	7.5084	-0.268311	0	-0.754801	0.157272	4.68739	0.131256
3.36	12.5946	246.248	-5.45693	-0.2834	0	-0.419873	-0.184937	-3.61586	0.0801285	8.95568	270.629	6.54402	-0.269559	0	-0.754507	0.158475	4.7889	0.115799
3.37	12.4985	247.538	-4.48839	-0.283739	0	-0.420275	-0.185724	-3.67834	0.0666961	8.85571	273.212	5.59262	-0.270588	0	-0.754218	0.157936	4.87258	0.099741
3.38	12.2613	248.994	-3.5699	-0.283868	0	-0.420703	-0.183941	-3.73535	0.0535549	8.6982	275.889	4.66848	-0.271386	0	-0.75394	0.155716	4.939	0.0835759
3.39	11.8955	250.579	-2.7183	-0.283797	0	-0.421148	-0.179669	-3.78471	0.0410569	8.48509	278.652	3.78612	-0.271953	0	-0.753676	0.151921	4.98911	0.0677884
3.4	11.4138	252.273	-1.93729	-0.283548	0	-0.421611	-0.172998	-3.82368	0.0293634	8.21752	281.491	2.96073	-0.272295	0	-0.753432	0.146672	5.02426	0.0528453
3.41	10.8269	254.081	-1.21631	-0.283138	0	-0.422093	-0.164031	-3.8494	0.0184274	7.89407	284.399	2.20694	-0.272423	0	-0.75321	0.140065	5.0461	0.0391578
3.42	10.1422	256.03	-0.535821	-0.282588	0	-0.422597	-0.152889	-3.85952	0.00807724	7.50967	287.375	1.53574	-0.272352	0	-0.753012	0.132136	5.05649	0.027022
3.43	9.36359	258.156	0.126696	-0.281915	0	-0.423126	-0.139736	-3.85254	-0.00189072	7.05617	290.417	0.951845	-0.272099	0	-0.752839	0.122877	5.05737	0.0165756
3.44	8.49469	260.492	0.793082	-0.281141	0	-0.423684	-0.124836	-3.82813	-0.0116549	6.52513	293.519	0.453332	-0.271688	0	-0.752688	0.112273	5.05035	0.00780013
3.45	7.54356	263.065	1.48184	-0.280286	0	-0.424274	-0.108612	-3.78759	-0.0213354	5.91265	296.661	0.0325291	-0.27114	0	-0.752555	0.100382	5.03655	0.000552262
3.46	6.52518	265.892	2.20647	-0.279373	0	-0.424892	-0.0916301	-3.7338	-0.0309845	5.22111	299.817	-0.321145	-0.270483	0	-0.752436	0.0873636	5.01677	-0.00537365
3.47	5.46117	268.985	2.97309	-0.278425	0	-0.425541	-0.0745302	-3.67092	-0.0405747	4.4574	302.964	-0.617176	-0.26974	0	-0.752327	0.0734442	4.99192	-0.0101692
